<svg class="img-fluid" id="outputsvg" xmlns="http://www.w3.org/2000/svg" style="transform: matrix(0.769231, 0, 0, 0.769231, 0, 0); transform-origin: 50% 50%; cursor: move; max-height: 350.08px;" width="1206" height="1278" viewBox="0 0 12060 12780"><defs><linearGradient id="lg1YObOjr1h0DxHM" gradientUnits="userSpaceOnUse" x1="10.2%" y1="20%" x2="90.9%" y2="50%"><stop offset="1%" style="stop-color:rgb(0,208,255);"></stop><stop offset="97%" style="stop-color:rgb(0,76,255);"></stop></linearGradient></defs><g id="lqSj4lz9Vh0qXhhV6pQUnc" fill="rgb(32,49,60)" style="transform: none;"><g style="transform: none;"><path id="pEaGiKQub" d="M5695 12750 c-473 -21 -1009 -130 -1485 -300 -260 -93 -563 -225 -557 -243 1 -5 71 -38 155 -72 195 -80 596 -281 782 -391 394 -234 876 -585 1220 -890 244 -216 573 -541 795 -784 192 -211 482 -570 635 -787 36 -51 69 -92 73 -93 5 0 111 49 235 109 230 111 392 183 717 318 99 41 183 78 187 82 11 10 12 2461 2 2470 -21 19 -371 173 -499 220 -77 29 -149 56 -161 60 -49 21 -373 114 -539 155 -283 71 -462 102 -775 135 -130 14 -578 20 -785 11z" fill="url(#lg1YObOjr1h0DxHM)"></path><path id="pd8HhoLAA" d="M1565 11724 c-343 -50 -572 -141 -792 -316 -69 -54 -179 -175 -170 -185 4 -3 98 -21 209 -40 452 -75 853 -210 1320 -444 644 -322 1281 -764 1937 -1344 292 -257 813 -793 1073 -1100 186 -220 601 -761 595 -776 -1 -3 -81 -89 -178 -190 -159 -165 -271 -290 -337 -373 -22 -28 -23 -29 -37 -10 -8 10 -15 22 -15 26 0 6 -58 80 -198 253 -105 130 -151 183 -272 319 -63 72 -149 168 -190 215 -113 130 -666 680 -827 823 -139 124 -558 463 -703 570 -77 56 -279 195 -467 320 -621 414 -1336 724 -1945 846 -26 5 -50 7 -53 4 -10 -10 -5 -613 5 -633 6 -11 21 -19 35 -19 77 0 377 -84 620 -175 736 -273 1365 -640 2100 -1225 103 -82 365 -320 373 -339 1 -3 -747 -5 -1662 -3 -1337 2 -1665 0 -1673 -10 -26 -35 -160 -488 -197 -668 -18 -91 -60 -348 -78 -485 -18 -137 -18 -990 0 -1125 41 -305 74 -478 132 -710 63 -250 163 -536 269 -770 l56 -125 1548 -5 1547 -5 1 -1663 c1 -1449 3 -1664 16 -1677 41 -41 389 -214 598 -298 410 -163 806 -264 1325 -338 107 -16 819 -23 900 -10 36 6 125 18 199 26 371 44 847 167 1236 320 132 51 527 241 576 276 l31 22 -3 136 c-2 75 -3 828 -1 1674 l2 1537 1529 0 c841 0 1537 3 1546 6 18 7 36 46 131 276 168 413 272 802 335 1258 27 194 38 778 20 1021 -19 248 -73 596 -122 794 -44 175 -134 476 -179 599 -57 155 -140 356 -147 356 -3 0 -42 -22 -87 -48 -483 -288 -812 -404 -1841 -650 -807 -193 -1255 -344 -1863 -625 -334 -155 -669 -357 -977 -588 -397 -297 -714 -629 -1014 -1058 -234 -335 -449 -765 -579 -1157 -42 -126 -96 -358 -107 -459 -3 -33 -11 -88 -16 -122 -17 -96 14 -374 58 -538 36 -130 124 -289 221 -398 230 -260 605 -355 942 -239 270 93 483 325 590 641 57 171 76 445 44 660 -20 140 -73 358 -122 506 -95 286 -293 705 -423 897 -22 32 -39 60 -39 63 0 15 128 170 276 335 172 190 292 306 303 295 32 -33 351 -622 351 -649 0 -2 20 -46 44 -97 190 -410 308 -776 365 -1140 17 -106 41 -379 41 -465 0 -242 -45 -508 -124 -728 -62 -175 -249 -484 -370 -615 -131 -142 -332 -290 -521 -385 -445 -223 -971 -226 -1427 -7 -443 212 -790 668 -933 1223 -108 420 -78 870 95 1443 104 345 224 623 429 995 324 589 949 1297 1501 1699 436 317 756 508 1176 702 351 161 647 270 1229 454 846 266 1130 374 1470 558 546 296 957 749 1114 1226 91 277 105 577 41 871 -25 113 -91 303 -146 419 -55 116 -185 330 -201 331 -8 0 -13 -38 -16 -122 -6 -155 -18 -236 -62 -405 -72 -279 -174 -498 -367 -785 -220 -328 -568 -660 -951 -906 -387 -250 -644 -367 -1442 -657 -693 -252 -829 -308 -1180 -481 -72 -35 -133 -64 -136 -64 -3 0 -28 33 -54 73 -45 67 -226 310 -416 557 -616 803 -1387 1504 -2234 2032 -519 323 -1154 587 -1712 712 -282 63 -410 78 -678 81 -132 2 -253 1 -270 -1z" fill="url(#lg1YObOjr1h0DxHM)"></path></g></g></svg>