<?xml version="1.0" standalone="no"?>
<!DOCTYPE svg PUBLIC "-//W3C//DTD SVG 20010904//EN"
 "http://www.w3.org/TR/2001/REC-SVG-20010904/DTD/svg10.dtd">
<svg version="1.0" xmlns="http://www.w3.org/2000/svg"
 width="1278.000000pt" height="1278.000000pt" viewBox="0 0 1278.000000 1278.000000"
 preserveAspectRatio="xMidYMid meet">
<metadata>
Created by potrace 1.14, written by Peter Selinger 2001-2017
</metadata>
<g transform="translate(0.000000,1278.000000) scale(0.100000,-0.100000)"
fill="#000000" stroke="none">
<path d="M6097 12744 c-1 -1 -51 -4 -112 -8 -60 -3 -119 -7 -130 -9 -11 -3
-41 -7 -66 -11 -51 -7 -66 -10 -189 -32 -182 -32 -261 -51 -615 -144 -89 -23
-417 -143 -521 -190 -27 -13 -78 -36 -114 -52 -186 -85 -371 -185 -385 -209
-11 -16 -14 -506 -15 -2019 l0 -1315 -1112 -4 c-1725 -4 -1976 -6 -1981 -11
-10 -10 -80 -167 -130 -290 -133 -332 -262 -812 -301 -1115 -11 -87 -17 -131
-22 -144 -24 -72 -24 -1086 0 -1221 2 -14 7 -46 10 -71 8 -58 10 -68 36 -219
12 -69 23 -135 25 -147 14 -85 145 -544 181 -633 9 -21 24 -40 34 -43 10 -2
757 -5 1661 -6 904 -1 1645 -4 1648 -6 7 -8 -279 -269 -383 -350 -21 -16 -44
-35 -50 -40 -21 -19 -321 -242 -426 -316 -549 -390 -1112 -683 -1710 -891
-169 -58 -365 -114 -452 -128 -41 -7 -82 -16 -89 -21 -11 -7 -14 -68 -14 -326
l0 -318 30 4 c65 7 391 92 505 131 360 123 753 297 1028 454 35 20 68 36 73
36 5 0 9 5 9 10 0 6 5 10 10 10 34 0 764 483 895 592 11 10 49 40 85 68 79 62
61 47 260 210 91 74 181 148 200 165 110 97 147 131 259 240 310 301 583 579
706 719 33 38 65 74 70 80 6 6 58 65 115 131 58 66 107 122 110 125 3 3 23 28
45 55 21 28 42 52 45 55 4 4 109 135 132 165 4 6 18 24 31 40 13 17 35 47 49
68 l25 38 88 -101 c48 -56 97 -111 109 -124 11 -12 84 -89 161 -171 77 -82
148 -155 158 -164 9 -8 17 -23 17 -32 0 -24 -382 -529 -554 -734 -28 -33 -60
-70 -71 -83 -21 -25 -32 -38 -117 -132 -284 -314 -727 -758 -948 -950 -157
-137 -200 -174 -290 -246 -47 -38 -87 -71 -90 -74 -27 -27 -303 -237 -455
-346 -705 -505 -1437 -872 -2040 -1022 -110 -28 -312 -71 -360 -77 -11 -1 -62
-10 -112 -20 -108 -20 -108 -16 -11 -115 187 -193 426 -315 748 -381 99 -20
144 -23 320 -23 187 0 415 10 429 18 3 2 31 7 61 10 278 33 776 179 1160 341
217 91 579 272 734 368 779 479 1435 1035 2026 1721 19 23 37 43 40 46 3 3 25
30 50 60 25 30 47 57 50 60 3 3 21 25 40 50 19 25 43 54 52 65 19 23 200 258
226 293 9 13 28 39 42 56 14 18 35 46 47 62 11 16 43 58 70 94 26 36 70 97 97
135 27 39 51 72 52 73 1 2 65 -26 141 -63 225 -110 426 -197 628 -274 105 -40
206 -79 225 -87 19 -7 78 -29 130 -48 224 -81 517 -188 535 -196 11 -5 106
-43 211 -84 235 -91 299 -120 489 -216 594 -303 1075 -714 1380 -1180 183
-280 273 -482 345 -770 37 -146 48 -217 56 -360 3 -63 10 -121 14 -129 14 -26
181 256 240 404 111 279 144 439 145 690 0 166 -8 245 -40 380 -37 157 -72
246 -189 472 -6 13 -14 23 -18 23 -5 0 -8 5 -8 10 0 13 -78 125 -149 215 -90
113 -307 324 -394 384 -12 8 -24 18 -27 22 -9 12 -225 156 -296 197 -136 79
-521 262 -550 262 -3 0 -20 6 -37 14 -99 44 -492 176 -997 336 -255 81 -574
188 -625 210 -11 4 -65 25 -120 46 -116 43 -282 112 -373 155 -35 16 -65 29
-68 29 -3 0 -84 40 -182 89 -495 248 -977 572 -1362 916 -111 100 -387 384
-500 515 -12 14 -34 39 -48 55 -15 17 -61 73 -102 125 -41 52 -77 97 -80 100
-17 15 -144 192 -225 315 -159 240 -293 489 -433 805 -77 173 -191 512 -232
690 -20 87 -50 229 -56 264 -3 21 -7 46 -9 55 -2 9 -6 44 -10 76 -4 33 -9 71
-12 85 -10 56 -9 372 3 473 29 251 94 469 209 700 130 261 306 477 518 639 66
50 219 148 232 148 2 0 32 13 67 29 104 47 227 88 321 107 10 2 26 5 35 8 72
22 371 35 482 21 328 -42 619 -168 891 -387 172 -138 282 -275 428 -532 91
-160 159 -341 188 -496 2 -14 8 -43 13 -65 5 -22 12 -62 15 -90 4 -27 9 -61
12 -75 9 -45 11 -343 2 -430 -4 -47 -10 -112 -13 -145 -3 -33 -8 -71 -11 -85
-2 -14 -7 -43 -10 -65 -18 -123 -69 -345 -111 -480 -48 -150 -126 -365 -169
-460 -7 -16 -41 -93 -75 -169 -69 -157 -133 -286 -210 -426 -28 -52 -66 -120
-82 -150 -17 -30 -48 -86 -70 -123 l-39 -68 -38 31 c-83 65 -494 521 -528 584
-11 20 -5 34 49 122 61 97 221 405 248 474 7 19 24 60 38 90 103 231 191 528
232 785 23 143 21 390 -4 525 -64 347 -275 635 -560 765 -114 52 -198 68 -361
68 -136 1 -159 -2 -240 -27 -214 -65 -393 -202 -508 -388 -59 -95 -119 -240
-132 -317 -3 -19 -7 -37 -9 -40 -2 -3 -7 -26 -10 -51 -3 -25 -8 -54 -10 -65
-17 -89 -26 -280 -15 -343 4 -26 10 -67 13 -92 7 -60 34 -201 53 -275 8 -33
16 -67 18 -75 6 -31 88 -275 95 -285 4 -5 11 -21 15 -35 24 -83 173 -402 265
-570 84 -153 263 -433 321 -504 5 -6 46 -58 91 -116 199 -257 458 -523 673
-695 28 -21 52 -42 55 -45 14 -16 251 -188 365 -265 264 -177 591 -355 890
-485 66 -28 140 -61 165 -72 153 -70 722 -272 825 -294 11 -2 52 -13 90 -24
112 -34 524 -141 590 -154 56 -12 638 -160 750 -191 415 -116 783 -264 1030
-414 37 -23 69 -41 71 -41 3 0 21 -10 42 -23 70 -44 65 -48 123 91 134 326
269 782 314 1057 3 17 8 41 10 55 11 53 13 69 20 120 4 29 9 62 11 74 2 12 6
46 10 76 3 30 7 66 10 80 19 112 26 712 11 983 -6 119 -37 359 -57 452 -5 22
-12 56 -15 75 -16 92 -78 340 -120 475 -25 83 -47 155 -49 160 -4 12 -15 43
-26 70 -4 11 -16 43 -25 70 -10 28 -23 64 -30 80 -7 17 -25 62 -40 100 -41
104 -104 238 -117 246 -6 4 -699 7 -1541 8 -842 1 -1533 3 -1534 5 -2 1 -3
755 -4 1675 l-1 1672 -41 26 c-53 33 -355 179 -489 236 -267 114 -617 222
-933 288 -33 7 -64 13 -70 15 -73 15 -162 30 -245 39 -30 3 -62 8 -70 10 -8 2
-39 7 -69 10 -30 4 -63 9 -75 12 -19 5 -734 12 -739 7z"/>
<path d="M7623 3528 c-26 -35 -59 -79 -72 -98 -23 -35 -220 -290 -231 -300 -3
-3 -21 -25 -40 -50 -190 -245 -612 -694 -915 -975 -22 -20 -65 -60 -95 -89
-47 -44 -154 -138 -224 -196 -10 -8 -23 -20 -30 -26 -22 -20 -253 -202 -351
-276 -188 -141 -539 -379 -665 -451 -14 -8 -65 -38 -115 -67 -88 -51 -490
-256 -590 -299 -27 -12 -99 -44 -159 -70 -61 -26 -112 -53 -114 -59 -4 -14
143 -84 343 -162 88 -34 169 -66 180 -70 199 -81 696 -212 930 -245 22 -3 63
-10 90 -15 45 -9 135 -20 265 -34 222 -24 909 -25 1038 -2 9 2 49 7 87 11 287
29 584 94 1101 244 129 37 419 153 691 276 40 19 63 36 67 49 7 26 6 2402 -1
2438 -3 14 -12 28 -21 31 -15 5 -381 159 -474 200 -18 8 -49 22 -68 30 -66 29
-185 84 -260 120 -164 78 -311 147 -315 147 -2 0 -25 -28 -52 -62z"/>
</g>
</svg>
